<?xml version="1.0" standalone="no"?><!DOCTYPE svg PUBLIC "-//W3C//DTD SVG 1.1//EN" "http://www.w3.org/Graphics/SVG/1.1/DTD/svg11.dtd"><svg t="1719740158951" class="icon" viewBox="0 0 3276 1024" version="1.1" xmlns="http://www.w3.org/2000/svg" p-id="6912" xmlns:xlink="http://www.w3.org/1999/xlink" width="639.84375" height="200"><path d="M768.009216 631.466667a119.466667 119.466667 0 1 0 119.466667 119.466666 119.466667 119.466667 0 0 0-119.466667-119.466666z m0 204.8a85.333333 85.333333 0 1 1 85.333333-85.333334 85.333333 85.333333 0 0 1-85.333333 85.333334zM2730.675883 631.466667a119.466667 119.466667 0 1 0 119.466666 119.466666 119.466667 119.466667 0 0 0-119.466666-119.466666z m0 204.8a85.333333 85.333333 0 1 1 85.333333-85.333334 85.333333 85.333333 0 0 1-85.333333 85.333334zM2378.931883 291.498667l-119.466667-51.2a17.066667 17.066667 0 0 0-13.312 31.402666l52.394667 22.528-419.84 23.381334-37.376-121.685334A1467.733333 1467.733333 0 0 1 2145.801216 238.933333a17.066667 17.066667 0 1 0 9.216-32.768 1488.213333 1488.213333 0 0 0-332.117333-44.032 17.066667 17.066667 0 0 0-10.069334 0c-205.994667-3.754667-468.309333 34.133333-679.765333 200.874667a14.506667 14.506667 0 0 0-3.925333 4.608l-0.853334 1.536a31.232 31.232 0 0 0-1.365333 4.266667v1.024c-3.754667 32.597333-32.256 320.682667 77.482667 375.466666A17.066667 17.066667 0 0 0 1211.742549 750.933333h699.733334c3.072 0 304.981333-4.096 375.466666-354.986666a17.066667 17.066667 0 1 0-34.133333-6.656C2188.638549 712.192 1922.739883 716.8 1911.475883 716.8h-9.045334c-100.864-123.562667 1.536-273.066667 5.973334-280.405333a17.066667 17.066667 0 1 0-27.989334-19.456c-1.194667 1.706667-110.08 160.768-20.309333 299.861333H1216.009216c-68.266667-40.106667-65.024-235.52-57.002667-324.266667l1214.293334-68.266666a17.066667 17.066667 0 0 0 5.632-32.768z m-573.610667-96.426667l37.888 124.416-643.413333 35.84c193.024-131.413333 421.546667-162.816 605.525333-160.256z" p-id="6913"></path><path d="M3154.782549 221.866667h2.56a14.336 14.336 0 0 0 6.485334-1.365334c19.285333-8.021333 115.370667-51.2 112.64-103.424-1.536-28.16-27.648-49.493333-80.042667-65.194666h-2.56l-358.4-51.2a17.066667 17.066667 0 0 0-19.456 14.336l-17.066667 136.533333a17.066667 17.066667 0 0 0 14.336 18.944l36.693334 5.461333v51.2l-160.597334-20.992a1877.333333 1877.333333 0 0 0-1241.6-147.797333 1923.242667 1923.242667 0 0 0-539.306666 199.850667l-61.610667 15.36L592.905216 307.2h-2.218667C149.342549 396.117333 136.542549 561.664 136.542549 580.266667v135.338666l-87.210666 58.197334a24.234667 24.234667 0 0 0-5.12 4.266666l-34.133334 34.133334a34.133333 34.133333 0 0 0-7.509333 37.205333A34.133333 34.133333 0 0 0 34.142549 870.4h488.618667a273.066667 273.066667 0 0 0 490.496 0h1472.170667a273.066667 273.066667 0 0 0 490.496 0H3089.075883a34.133333 34.133333 0 0 0 27.306666-13.653333l51.2-68.266667a34.133333 34.133333 0 0 0 6.826667-20.48V556.544l28.330667-42.666667a34.133333 34.133333 0 0 0 2.218666-34.133333l-102.4-204.8a34.133333 34.133333 0 0 0-26.112-18.944l-21.504-2.56v-46.762667z m-307.2-185.173334L3187.721216 85.333333c39.594667 12.117333 54.101333 25.258667 54.613333 34.133334 1.024 19.797333-48.64 51.2-87.210666 68.266666l-320.170667-48.469333zM307.209216 477.866667h138.410667l-200.192 157.354666a17.066667 17.066667 0 0 0-6.144 10.069334L224.947883 716.8H204.809216v-135.168s5.802667-48.64 96.256-102.4c2.048-1.365333 3.925333-1.365333 6.144-1.365333z m460.8 477.866666a204.8 204.8 0 0 1-187.733333-124.074666 35.328 35.328 0 0 0-5.290667-14.506667A202.752 202.752 0 0 1 563.209216 750.933333a204.8 204.8 0 1 1 204.8 204.8z m1962.666667 0a204.8 204.8 0 1 1 204.8-204.8 204.8 204.8 0 0 1-204.8 204.8z m341.333333-153.6h-73.216a280.064 280.064 0 0 0 4.949333-51.2v-7.850666l45.056-11.264L3106.142549 645.12v111.445333z m62.976-309.589333l-23.04 34.133333A34.133333 34.133333 0 0 0 3106.142549 546.133333v37.546667l-78.848 118.272-27.136 6.656A273.066667 273.066667 0 0 0 2457.609216 750.933333a280.064 280.064 0 0 0 4.949333 51.2H1036.126549a280.064 280.064 0 0 0 4.949334-51.2 273.066667 273.066667 0 0 0-546.133334 0 280.064 280.064 0 0 0 4.949334 51.2H129.886549l59.733334-39.765333a34.133333 34.133333 0 0 0 10.410666-11.434667H238.942549a17.066667 17.066667 0 0 0 17.066667-13.653333l15.872-79.189333 233.642667-183.808a17.066667 17.066667 0 0 0 6.485333-19.114667 17.066667 17.066667 0 0 0-17.066667-11.434667h-125.44a1177.6 1177.6 0 0 1 233.472-68.266666l254.805334-34.133334h3.925333l68.266667-17.066666a37.717333 37.717333 0 0 0 9.386666-3.925334c8.192-5.12 831.658667-496.469333 1724.928-49.834666a29.184 29.184 0 0 0 10.752 3.242666l374.613334 48.981334zM3020.809216 249.002667l-136.533333-17.066667v-50.858667l136.533333 20.48z" p-id="6914"></path></svg>